<svg xmlns="http://www.w3.org/2000/svg" width="32" height="32"><path fill-rule="evenodd" d="m16.188 4.045 2.449 1.047L8.25 9.535a.5.5 0 0 0-.03.014L5.769 8.5Zm3.722 1.592 2.973 1.271-10.58 4.526a.5.5 0 0 0-.301.51.52.52 0 0 0-.002.058v5.35l-1.084-1.627a.5.5 0 0 0-.639-.17L9 16.193v-5.89Zm4.244 1.814L26.607 8.5l-10.42 4.455-2.45-1.047 10.388-4.443a.504.504 0 0 0 .03-.014zM5 9.258l3 1.283v6.461a.5.5 0 0 0 .723.447l1.605-.803 1.729 2.592.002.004a.5.5 0 0 0 .252.227l.002.002a.509.509 0 0 0 .431-.026l.002-.002a.5.5 0 0 0 .254-.502v-6.26l2.688 1.15v13.915L5 23.174Zm22.375.002v13.914l-10.688 4.572V13.83z" color="#000" font-family="sans-serif" font-weight="400" overflow="visible" style="line-height:normal;text-indent:0;text-align:start;text-decoration-line:none;text-decoration-style:solid;text-decoration-color:#000;text-transform:none;block-progression:tb;isolation:auto;mix-blend-mode:normal"/></svg>